<svg width="20" height="24" viewBox="0 0 20 24" fill="none" xmlns="http://www.w3.org/2000/svg">
<path d="M10 0C15.2871 0 19.7579 2.18288 19.9092 4.79593C19.7579 7.40874 15.2871 9.59217 10 9.59217C4.71274 9.59217 0.242359 7.40922 0.0908356 4.79593C0.242359 2.18288 4.71274 0 10 0Z" fill="#1890FF"/>
<path d="M19.9234 19.0687C19.9234 21.7417 15.3794 24 10 24C4.62063 24 0.0765839 21.7417 0.0765839 19.0687V16.7106C1.7755 18.7505 5.53295 20.1379 10 20.1379C14.4671 20.1379 18.2244 18.7501 19.9234 16.7106V19.0687Z" fill="#1890FF"/>
<path d="M19.9234 14.2326C19.9234 16.9055 15.3794 19.1639 10 19.1639C4.62063 19.1639 0.0765839 16.9055 0.0765839 14.2326V11.7765C1.7755 13.8159 5.53295 15.2029 10 15.2029C14.4671 15.2029 18.2244 13.815 19.9234 11.7765V14.2326Z" fill="#1890FF"/>
<path d="M19.9234 9.29744C19.9234 11.9705 15.3794 14.2287 10 14.2287C4.62063 14.2287 0.0765839 11.9705 0.0765839 9.29744V7.13936C1.7755 9.17927 5.53295 10.5657 10 10.5657C14.4671 10.5657 18.2244 9.17879 19.9234 7.13936V9.29744Z" fill="#1890FF"/>
</svg>
